<svg width="50" height="50" viewBox="0 0 50 50" fill="none" xmlns="http://www.w3.org/2000/svg">
<path d="M25.0003 0.916626L45.8337 8.20829V25C45.8337 33.5979 40.5566 39.6083 35.6337 43.3395C32.6641 45.5718 29.4051 47.3905 25.9462 48.7458L25.7649 48.8145L25.7128 48.8333L25.6982 48.8375L25.692 48.8395C25.6899 48.8395 25.6878 48.8395 25.0003 46.875L24.3107 48.8416L24.3024 48.8375L24.2878 48.8333L24.2357 48.8125L24.0545 48.7458C23.0719 48.3658 22.1058 47.9446 21.1587 47.4833C18.7678 46.3218 16.4935 44.9343 14.367 43.3395C9.44616 39.6083 4.16699 33.5979 4.16699 25V8.20829L25.0003 0.916626ZM25.0003 46.875L24.3107 48.8416L25.0003 49.0833L25.6899 48.8416L25.0003 46.875ZM25.0003 44.6416L25.0191 44.6333C27.9017 43.4418 30.6225 41.8913 33.117 40.0187C37.5712 36.6458 41.667 31.7145 41.667 25V11.1666L25.0003 5.33329L8.33366 11.1666V25C8.33366 31.7145 12.4295 36.6416 16.8837 40.0208C19.3837 41.897 22.1108 43.4496 25.0003 44.6416ZM37.6503 17.3812L22.9191 32.1125L14.0795 23.275L17.0274 20.327L22.917 26.2208L34.7024 14.4354L37.6503 17.3812Z" fill="#005496"/>
</svg>
