<svg width="50" height="50" viewBox="0 0 50 50" fill="none" xmlns="http://www.w3.org/2000/svg">
<path d="M7.4846 19.109C8.57299 19.109 9.15871 18.5018 9.15871 17.3929V12.4554C9.15871 10.2786 10.3301 9.16969 12.423 9.16969H17.4873C18.5757 9.16969 19.1819 8.56255 19.1819 7.47416C19.1819 6.40719 18.5748 5.80005 17.4873 5.80005H12.3605C8.00781 5.80005 5.78906 7.95541 5.78906 12.2661V17.3938C5.78906 18.5027 6.39621 19.109 7.4846 19.109ZM42.515 19.109C43.6239 19.109 44.2105 18.5018 44.2105 17.3929V12.2661C44.2105 7.95541 42.0337 5.80005 37.6391 5.80005H32.5328C31.4239 5.80005 30.8176 6.40719 30.8176 7.47416C30.8176 8.56255 31.4248 9.16969 32.5328 9.16969H37.5971C39.648 9.16969 40.8408 10.2786 40.8408 12.4554V17.3929C40.8408 18.5027 41.448 19.109 42.515 19.109ZM24.0998 23.1893V15.8867C24.0998 15.3849 23.7025 14.9661 23.1792 14.9661H15.8971C15.3739 14.9661 14.9757 15.384 14.9757 15.8867V23.1902C14.9757 23.692 15.3739 24.0902 15.8971 24.0902H23.1792C23.7025 24.0902 24.0998 23.6911 24.0998 23.1893ZM27.7203 16.7875H33.2025V22.2697H27.7203V16.7875ZM31.6132 20.6804V18.3983H29.3319V20.6795L31.6132 20.6804ZM20.6891 20.6804V18.3983H18.3873V20.6795L20.6891 20.6804ZM16.7962 27.7322H22.2792V33.2143H16.7971L16.7962 27.7322ZM34.7516 28.4429V26.1625H32.4703V28.4438L34.7516 28.4429ZM28.4525 28.4429V26.1625H26.1712V28.4438L28.4525 28.4429ZM20.6891 31.6036V29.3215H18.3873V31.6018L20.6891 31.6036ZM31.6123 31.6036V29.3215H29.3105V31.6018L31.6123 31.6036ZM32.5328 44.2009H37.64C42.0337 44.2009 44.2105 42.0242 44.2105 37.7134V32.6072C44.2105 31.4974 43.6033 30.8911 42.515 30.8911C41.4266 30.8911 40.8408 31.4983 40.8408 32.6072V37.5447C40.8408 39.7215 39.648 40.8304 37.5971 40.8304H32.5328C31.4239 40.8304 30.8176 41.4376 30.8176 42.5259C30.8176 43.5929 31.4248 44.2009 32.5328 44.2009ZM12.3605 44.2001H17.4873C18.5757 44.2001 19.1819 43.5929 19.1819 42.5259C19.1819 41.4376 18.5748 40.8313 17.4873 40.8313H12.423C10.3301 40.8313 9.15871 39.7215 9.15871 37.5456V32.6072C9.15871 31.4974 8.55156 30.8911 7.4846 30.8911C6.37567 30.8911 5.78906 31.4983 5.78906 32.6072V37.7125C5.78906 42.0447 8.00781 44.2001 12.3605 44.2001ZM28.4525 34.7625V32.4813H26.1712V34.7625H28.4525ZM34.7516 34.7625V32.4813H32.4703V34.7625H34.7516ZM35.0239 23.1902V15.8867C35.0239 15.3849 34.6257 14.9661 34.1025 14.9661H26.8212C26.298 14.9661 25.9007 15.384 25.9007 15.8867V23.1902C25.9007 23.692 26.298 24.0902 26.8203 24.0902H34.1033C34.6266 24.0902 35.0239 23.692 35.0239 23.1902ZM16.7962 16.7858H22.2792V22.2679H16.7971L16.7962 16.7858ZM24.0998 34.1125V26.809C24.0998 26.3072 23.7025 25.9099 23.1792 25.9099H15.8971C15.3739 25.9099 14.9757 26.3072 14.9757 26.809V34.1125C14.9757 34.6152 15.3739 35.0331 15.8971 35.0331H23.1792C23.7025 35.0331 24.0998 34.6152 24.0998 34.1125Z" fill="#005496"/>
</svg>
