<svg width="50" height="50" viewBox="0 0 50 50" fill="none" xmlns="http://www.w3.org/2000/svg">
<path d="M41.7305 16.082L30.793 5.14453C30.6478 4.99948 30.4754 4.88446 30.2857 4.80604C30.096 4.72762 29.8928 4.68734 29.6875 4.6875H10.9375C10.1087 4.6875 9.31384 5.01674 8.72779 5.60279C8.14174 6.18884 7.8125 6.9837 7.8125 7.8125V42.1875C7.8125 43.0163 8.14174 43.8112 8.72779 44.3972C9.31384 44.9833 10.1087 45.3125 10.9375 45.3125H39.0625C39.8913 45.3125 40.6862 44.9833 41.2722 44.3972C41.8583 43.8112 42.1875 43.0163 42.1875 42.1875V17.1875C42.1877 16.9822 42.1474 16.779 42.069 16.5893C41.9905 16.3996 41.8755 16.2272 41.7305 16.082ZM39.0625 42.1875H10.9375V7.8125H29.041L39.0625 17.834V42.1875ZM34.375 21.875H15.625C15.2106 21.875 14.8132 22.0396 14.5201 22.3326C14.2271 22.6257 14.0625 23.0231 14.0625 23.4375V37.5C14.0625 37.9144 14.2271 38.3118 14.5201 38.6049C14.8132 38.8979 15.2106 39.0625 15.625 39.0625H34.375C34.7894 39.0625 35.1868 38.8979 35.4799 38.6049C35.7729 38.3118 35.9375 37.9144 35.9375 37.5V23.4375C35.9375 23.0231 35.7729 22.6257 35.4799 22.3326C35.1868 22.0396 34.7894 21.875 34.375 21.875ZM32.8125 35.9375H29.6875V29.6875C29.6875 29.2731 29.5229 28.8757 29.2299 28.5826C28.9368 28.2896 28.5394 28.125 28.125 28.125C27.7106 28.125 27.3132 28.2896 27.0201 28.5826C26.7271 28.8757 26.5625 29.2731 26.5625 29.6875V35.9375H23.4375V29.6875C23.4375 29.2731 23.2729 28.8757 22.9799 28.5826C22.6868 28.2896 22.2894 28.125 21.875 28.125C21.4606 28.125 21.0632 28.2896 20.7701 28.5826C20.4771 28.8757 20.3125 29.2731 20.3125 29.6875V35.9375H17.1875V25H32.8125V35.9375Z" fill="#005496"/>
</svg>
